ffmpeg started on 2025-04-30 at 18:20:25
Report written to "D:\Convert\FFMetrics\reports\ssim_report-6.txt"
Log level: 32
Command line:
ffmpeg -hide_banner -nostdin -i "G:\\\xc0\xed\xe8\xec\xe5\\\xce\xed\xe3\xee\xe8\xed\xe3\xe8\\!_35_\xcb\xe5\xf2\xee_2024\\JamClub\\\xcc\xe5\xf7 \xe8 \xe6\xe5\xe7\xeb \xc2\xe8\xf1\xf2\xee\xf0\xe8\xe8\\JamClub_Tsue_to_Tsurugi_no_Wistoria_10_1080p_HEVC.mkv" -i "G:\\\xc0\xed\xe8\xec\xe5\\\xce\xed\xe3\xee\xe8\xed\xe3\xe8\\!_35_\xcb\xe5\xf2\xee_2024\\JamClub\\\xcc\xe5\xf7 \xe8 \xe6\xe5\xe7\xeb \xc2\xe8\xf1\xf2\xee\xf0\xe8\xe8\\JamClub_Tsue_to_Tsurugi_no_Wistoria_10_1080p.mp4" -lavfi "[0:v]settb=AVTB,setpts=PTS-STARTPTS,format=pix_fmts=yuv420p10,fps=24000/1001,scale=1920:1080:flags=bicubic[main];[1:v]settb=AVTB,setpts=PTS-STARTPTS,format=pix_fmts=yuv420p,fps=24000/1001,scale=1920:1080:flags=bicubic[ref];[main][ref]ssim=eof_action=endall:stats_file='D\\:/Convert/FFMetrics/logs/ssim_logfile-6.txt'" -f null -
Input #0, matroska,webm, from 'G:\Аниме\Онгоинги\!_35_Лето_2024\JamClub\Меч и жезл Вистории\JamClub_Tsue_to_Tsurugi_no_Wistoria_10_1080p_HEVC.mkv':
  Metadata:
    COMPATIBLE_BRANDS: isomiso2avc1mp41
    MAJOR_BRAND     : isom
    MINOR_VERSION   : 512
    ENCODER         : Lavf61.7.100
  Duration: 00:24:08.32, start: -0.001000, bitrate: 1766 kb/s
  Stream #0:0: Video: hevc (Main 10), yuv420p10le(tv, bt709, progressive), 1920x1080 [SAR 1:1 DAR 16:9], 23.98 fps, 23.98 tbr, 1k tbn (default)
      Metadata:
        HANDLER_NAME    : VideoHandler
        VENDOR_ID       : [0][0][0][0]
        ENCODER         : Lavc61.19.100 libx265
        BPS             : 1569490
        DURATION        : 00:24:08.238708333
        NUMBER_OF_FRAMES: 34723
        NUMBER_OF_BYTES : 284124525
        _STATISTICS_WRITING_APP: mkvpropedit v66.0.0 ('Josie') 64-bit
        _STATISTICS_WRITING_DATE_UTC: 2025-04-29 13:29:52
        _STATISTICS_TAGS: BPS DURATION NUMBER_OF_FRAMES NUMBER_OF_BYTES
  Stream #0:1(eng): Audio: aac (LC), 48000 Hz, stereo, fltp (default)
      Metadata:
        HANDLER_NAME    : SoundHandler
        VENDOR_ID       : [0][0][0][0]
        ENCODER         : Lavc61.19.100 aac
        BPS             : 193243
        DURATION        : 00:24:08.280000000
        NUMBER_OF_FRAMES: 67889
        NUMBER_OF_BYTES : 34983870
        _STATISTICS_WRITING_APP: mkvpropedit v66.0.0 ('Josie') 64-bit
        _STATISTICS_WRITING_DATE_UTC: 2025-04-29 13:29:52
        _STATISTICS_TAGS: BPS DURATION NUMBER_OF_FRAMES NUMBER_OF_BYTES
Input #1, mov,mp4,m4a,3gp,3g2,mj2, from 'G:\Аниме\Онгоинги\!_35_Лето_2024\JamClub\Меч и жезл Вистории\JamClub_Tsue_to_Tsurugi_no_Wistoria_10_1080p.mp4':
  Metadata:
    major_brand     : isom
    minor_version   : 512
    compatible_brands: isomiso2avc1mp41
    encoder         : Lavf60.16.100
  Duration: 00:24:08.30, start: 0.000000, bitrate: 5133 kb/s
  Stream #1:0[0x1](und): Video: h264 (High) (avc1 / 0x31637661), yuv420p(progressive), 1920x1080 [SAR 1:1 DAR 16:9], 4935 kb/s, 23.98 fps, 23.98 tbr, 90k tbn (default)
      Metadata:
        handler_name    : VideoHandler
        vendor_id       : [0][0][0][0]
  Stream #1:1[0x2](eng): Audio: aac (LC) (mp4a / 0x6134706D), 48000 Hz, stereo, fltp, 191 kb/s (default)
      Metadata:
        handler_name    : SoundHandler
        vendor_id       : [0][0][0][0]
Stream mapping:
  Stream #0:0 (hevc) -> settb:default
  Stream #1:0 (h264) -> settb:default
  ssim:default -> Stream #0:0 (wrapped_avframe)
  Stream #0:1 -> #0:1 (aac (native) -> pcm_s16le (native))
Output #0, null, to 'pipe:':
  Metadata:
    COMPATIBLE_BRANDS: isomiso2avc1mp41
    MAJOR_BRAND     : isom
    MINOR_VERSION   : 512
    encoder         : Lavf61.7.100
  Stream #0:0: Video: wrapped_avframe, yuv420p10le(tv, bt709, progressive), 1920x1080 [SAR 1:1 DAR 16:9], q=2-31, 200 kb/s, 23.98 fps, 23.98 tbn
      Metadata:
        encoder         : Lavc61.19.100 wrapped_avframe
  Stream #0:1(eng): Audio: pcm_s16le, 48000 Hz, stereo, s16, 1536 kb/s (default)
      Metadata:
        HANDLER_NAME    : SoundHandler
        VENDOR_ID       : [0][0][0][0]
        _STATISTICS_TAGS: BPS DURATION NUMBER_OF_FRAMES NUMBER_OF_BYTES
        BPS             : 193243
        DURATION        : 00:24:08.280000000
        NUMBER_OF_FRAMES: 67889
        NUMBER_OF_BYTES : 34983870
        _STATISTICS_WRITING_APP: mkvpropedit v66.0.0 ('Josie') 64-bit
        _STATISTICS_WRITING_DATE_UTC: 2025-04-29 13:29:52
        encoder         : Lavc61.19.100 pcm_s16le
frame=  114 fps=0.0 q=-0.0 size=N/A time=00:00:04.75 bitrate=N/A speed=9.14x    frame=  282 fps=270 q=-0.0 size=N/A time=00:00:11.76 bitrate=N/A speed=11.2x    frame=  493 fps=313 q=-0.0 size=N/A time=00:00:20.56 bitrate=N/A speed=13.1x    frame=  718 fps=345 q=-0.0 size=N/A time=00:00:29.94 bitrate=N/A speed=14.4x    frame=  917 fps=352 q=-0.0 size=N/A time=00:00:38.24 bitrate=N/A speed=14.7x    frame= 1141 fps=367 q=-0.0 size=N/A time=00:00:47.58 bitrate=N/A speed=15.3x    frame= 1386 fps=381 q=-0.0 size=N/A time=00:00:57.80 bitrate=N/A speed=15.9x    frame= 1573 fps=380 q=-0.0 size=N/A time=00:01:05.60 bitrate=N/A speed=15.8x    frame= 1789 fps=383 q=-0.0 size=N/A time=00:01:14.61 bitrate=N/A speed=  16x    frame= 2023 fps=391 q=-0.0 size=N/A time=00:01:24.37 bitrate=N/A speed=16.3x    frame= 2261 fps=397 q=-0.0 size=N/A time=00:01:34.30 bitrate=N/A speed=16.5x    frame= 2481 fps=400 q=-0.0 size=N/A time=00:01:43.47 bitrate=N/A speed=16.7x    frame= 2659 fps=396 q=-0.0 size=N/A time=00:01:50.90 bitrate=N/A speed=16.5x    frame= 2846 fps=393 q=-0.0 size=N/A time=00:01:58.74 bitrate=N/A speed=16.4x    frame= 3044 fps=393 q=-0.0 size=N/A time=00:02:06.96 bitrate=N/A speed=16.4x    frame= 3203 fps=387 q=-0.0 size=N/A time=00:02:13.59 bitrate=N/A speed=16.1x    frame= 3387 fps=386 q=-0.0 size=N/A time=00:02:21.26 bitrate=N/A speed=16.1x    frame= 3575 fps=384 q=-0.0 size=N/A time=00:02:29.10 bitrate=N/A speed=  16x    frame= 3778 fps=385 q=-0.0 size=N/A time=00:02:37.57 bitrate=N/A speed=16.1x    frame= 4032 fps=390 q=-0.0 size=N/A time=00:02:48.16 bitrate=N/A speed=16.3x    frame= 4224 fps=390 q=-0.0 size=N/A time=00:02:56.17 bitrate=N/A speed=16.2x    frame= 4445 fps=391 q=-0.0 size=N/A time=00:03:05.39 bitrate=N/A speed=16.3x    frame= 4663 fps=393 q=-0.0 size=N/A time=00:03:14.48 bitrate=N/A speed=16.4x    frame= 4900 fps=395 q=-0.0 size=N/A time=00:03:24.37 bitrate=N/A speed=16.5x    frame= 5138 fps=398 q=-0.0 size=N/A time=00:03:34.29 bitrate=N/A speed=16.6x    frame= 5405 fps=402 q=-0.0 size=N/A time=00:03:45.43 bitrate=N/A speed=16.8x    frame= 5636 fps=404 q=-0.0 size=N/A time=00:03:55.06 bitrate=N/A speed=16.8x    frame= 5888 fps=407 q=-0.0 size=N/A time=00:04:05.57 bitrate=N/A speed=  17x    frame= 6155 fps=410 q=-0.0 size=N/A time=00:04:16.71 bitrate=N/A speed=17.1x    frame= 6374 fps=411 q=-0.0 size=N/A time=00:04:25.84 bitrate=N/A speed=17.1x    frame= 6612 fps=412 q=-0.0 size=N/A time=00:04:35.77 bitrate=N/A speed=17.2x    frame= 6863 fps=415 q=-0.0 size=N/A time=00:04:46.24 bitrate=N/A speed=17.3x    frame= 7101 fps=416 q=-0.0 size=N/A time=00:04:56.17 bitrate=N/A speed=17.4x    frame= 7313 fps=416 q=-0.0 size=N/A time=00:05:05.01 bitrate=N/A speed=17.4x    frame= 7550 fps=417 q=-0.0 size=N/A time=00:05:14.89 bitrate=N/A speed=17.4x    frame= 7730 fps=416 q=-0.0 size=N/A time=00:05:22.40 bitrate=N/A speed=17.3x    frame= 7938 fps=415 q=-0.0 size=N/A time=00:05:31.08 bitrate=N/A speed=17.3x    frame= 8145 fps=415 q=-0.0 size=N/A time=00:05:39.71 bitrate=N/A speed=17.3x    frame= 8376 fps=416 q=-0.0 size=N/A time=00:05:49.34 bitrate=N/A speed=17.3x    frame= 8614 fps=417 q=-0.0 size=N/A time=00:05:59.27 bitrate=N/A speed=17.4x    frame= 8872 fps=419 q=-0.0 size=N/A time=00:06:10.03 bitrate=N/A speed=17.5x    frame= 9146 fps=422 q=-0.0 size=N/A time=00:06:21.46 bitrate=N/A speed=17.6x    frame= 9399 fps=423 q=-0.0 size=N/A time=00:06:32.01 bitrate=N/A speed=17.6x    frame= 9650 fps=425 q=-0.0 size=N/A time=00:06:42.48 bitrate=N/A speed=17.7x    frame= 9903 fps=426 q=-0.0 size=N/A time=00:06:53.03 bitrate=N/A speed=17.8x    frame=10146 fps=427 q=-0.0 size=N/A time=00:07:03.17 bitrate=N/A speed=17.8x    frame=10348 fps=426 q=-0.0 size=N/A time=00:07:11.59 bitrate=N/A speed=17.8x    frame=10579 fps=427 q=-0.0 size=N/A time=00:07:21.23 bitrate=N/A speed=17.8x    frame=10778 fps=426 q=-0.0 size=N/A time=00:07:29.53 bitrate=N/A speed=17.8x    frame=11005 fps=426 q=-0.0 size=N/A time=00:07:39.00 bitrate=N/A speed=17.8x    frame=11244 fps=427 q=-0.0 size=N/A time=00:07:48.96 bitrate=N/A speed=17.8x    frame=11477 fps=427 q=-0.0 size=N/A time=00:07:58.68 bitrate=N/A speed=17.8x    frame=11743 fps=429 q=-0.0 size=N/A time=00:08:09.78 bitrate=N/A speed=17.9x    frame=11979 fps=430 q=-0.0 size=N/A time=00:08:19.62 bitrate=N/A speed=17.9x    frame=12180 fps=429 q=-0.0 size=N/A time=00:08:28.00 bitrate=N/A speed=17.9x    frame=12402 fps=429 q=-0.0 size=N/A time=00:08:37.26 bitrate=N/A speed=17.9x    frame=12666 fps=430 q=-0.0 size=N/A time=00:08:48.27 bitrate=N/A speed=17.9x    frame=12868 fps=430 q=-0.0 size=N/A time=00:08:56.70 bitrate=N/A speed=17.9x    frame=13073 fps=429 q=-0.0 size=N/A time=00:09:05.25 bitrate=N/A speed=17.9x    frame=13298 fps=429 q=-0.0 size=N/A time=00:09:14.63 bitrate=N/A speed=17.9x    frame=13474 fps=428 q=-0.0 size=N/A time=00:09:21.97 bitrate=N/A speed=17.8x    frame=13637 fps=426 q=-0.0 size=N/A time=00:09:28.77 bitrate=N/A speed=17.8x    frame=13797 fps=424 q=-0.0 size=N/A time=00:09:35.44 bitrate=N/A speed=17.7x    frame=13976 fps=423 q=-0.0 size=N/A time=00:09:42.91 bitrate=N/A speed=17.6x    frame=14198 fps=423 q=-0.0 size=N/A time=00:09:52.17 bitrate=N/A speed=17.6x    frame=14437 fps=424 q=-0.0 size=N/A time=00:10:02.14 bitrate=N/A speed=17.7x    frame=14679 fps=424 q=-0.0 size=N/A time=00:10:12.23 bitrate=N/A speed=17.7x    frame=14937 fps=426 q=-0.0 size=N/A time=00:10:22.99 bitrate=N/A speed=17.8x    frame=15127 fps=425 q=-0.0 size=N/A time=00:10:30.92 bitrate=N/A speed=17.7x    frame=15365 fps=425 q=-0.0 size=N/A time=00:10:40.84 bitrate=N/A speed=17.7x    frame=15574 fps=425 q=-0.0 size=N/A time=00:10:49.56 bitrate=N/A speed=17.7x    frame=15799 fps=425 q=-0.0 size=N/A time=00:10:58.94 bitrate=N/A speed=17.7x    frame=16071 fps=427 q=-0.0 size=N/A time=00:11:10.29 bitrate=N/A speed=17.8x    frame=16236 fps=425 q=-0.0 size=N/A time=00:11:17.17 bitrate=N/A speed=17.7x    frame=16439 fps=425 q=-0.0 size=N/A time=00:11:25.64 bitrate=N/A speed=17.7x    frame=16663 fps=425 q=-0.0 size=N/A time=00:11:34.98 bitrate=N/A speed=17.7x    frame=16872 fps=424 q=-0.0 size=N/A time=00:11:43.70 bitrate=N/A speed=17.7x    frame=17034 fps=423 q=-0.0 size=N/A time=00:11:50.45 bitrate=N/A speed=17.6x    frame=17228 fps=422 q=-0.0 size=N/A time=00:11:58.55 bitrate=N/A speed=17.6x    frame=17383 fps=421 q=-0.0 size=N/A time=00:12:05.01 bitrate=N/A speed=17.6x    frame=17577 fps=420 q=-0.0 size=N/A time=00:12:13.10 bitrate=N/A speed=17.5x    frame=17823 fps=421 q=-0.0 size=N/A time=00:12:23.36 bitrate=N/A speed=17.6x    frame=18067 fps=422 q=-0.0 size=N/A time=00:12:33.54 bitrate=N/A speed=17.6x    frame=18327 fps=423 q=-0.0 size=N/A time=00:12:44.38 bitrate=N/A speed=17.6x    frame=18541 fps=423 q=-0.0 size=N/A time=00:12:53.31 bitrate=N/A speed=17.6x    frame=18721 fps=422 q=-0.0 size=N/A time=00:13:00.82 bitrate=N/A speed=17.6x    frame=18933 fps=422 q=-0.0 size=N/A time=00:13:09.66 bitrate=N/A speed=17.6x    frame=19177 fps=422 q=-0.0 size=N/A time=00:13:19.84 bitrate=N/A speed=17.6x    frame=19432 fps=423 q=-0.0 size=N/A time=00:13:30.47 bitrate=N/A speed=17.6x    frame=19678 fps=424 q=-0.0 size=N/A time=00:13:40.73 bitrate=N/A speed=17.7x    frame=19921 fps=424 q=-0.0 size=N/A time=00:13:50.87 bitrate=N/A speed=17.7x    frame=20084 fps=423 q=-0.0 size=N/A time=00:13:57.67 bitrate=N/A speed=17.6x    frame=20283 fps=422 q=-0.0 size=N/A time=00:14:05.97 bitrate=N/A speed=17.6x    frame=20492 fps=422 q=-0.0 size=N/A time=00:14:14.68 bitrate=N/A speed=17.6x    frame=20735 fps=423 q=-0.0 size=N/A time=00:14:24.82 bitrate=N/A speed=17.6x    frame=20989 fps=424 q=-0.0 size=N/A time=00:14:35.41 bitrate=N/A speed=17.7x    frame=21203 fps=423 q=-0.0 size=N/A time=00:14:44.34 bitrate=N/A speed=17.7x    frame=21441 fps=424 q=-0.0 size=N/A time=00:14:54.26 bitrate=N/A speed=17.7x    frame=21689 fps=424 q=-0.0 size=N/A time=00:15:04.61 bitrate=N/A speed=17.7x    frame=21933 fps=425 q=-0.0 size=N/A time=00:15:14.78 bitrate=N/A speed=17.7x    frame=22140 fps=425 q=-0.0 size=N/A time=00:15:23.42 bitrate=N/A speed=17.7x    frame=22370 fps=425 q=-0.0 size=N/A time=00:15:33.01 bitrate=N/A speed=17.7x    frame=22542 fps=424 q=-0.0 size=N/A time=00:15:40.18 bitrate=N/A speed=17.7x    frame=22786 fps=425 q=-0.0 size=N/A time=00:15:50.36 bitrate=N/A speed=17.7x    frame=23042 fps=425 q=-0.0 size=N/A time=00:16:01.04 bitrate=N/A speed=17.7x    frame=23273 fps=425 q=-0.0 size=N/A time=00:16:10.67 bitrate=N/A speed=17.7x    frame=23510 fps=426 q=-0.0 size=N/A time=00:16:20.56 bitrate=N/A speed=17.8x    frame=23695 fps=425 q=-0.0 size=N/A time=00:16:28.27 bitrate=N/A speed=17.7x    frame=23921 fps=425 q=-0.0 size=N/A time=00:16:37.70 bitrate=N/A speed=17.7x    frame=24193 fps=426 q=-0.0 size=N/A time=00:16:49.04 bitrate=N/A speed=17.8x    frame=24407 fps=426 q=-0.0 size=N/A time=00:16:57.97 bitrate=N/A speed=17.8x    frame=24635 fps=426 q=-0.0 size=N/A time=00:17:07.48 bitrate=N/A speed=17.8x    frame=24856 fps=426 q=-0.0 size=N/A time=00:17:16.70 bitrate=N/A speed=17.8x    frame=25105 fps=427 q=-0.0 size=N/A time=00:17:27.08 bitrate=N/A speed=17.8x    frame=25364 fps=427 q=-0.0 size=N/A time=00:17:37.89 bitrate=N/A speed=17.8x    frame=25567 fps=427 q=-0.0 size=N/A time=00:17:46.35 bitrate=N/A speed=17.8x    frame=25731 fps=426 q=-0.0 size=N/A time=00:17:53.19 bitrate=N/A speed=17.8x    frame=25947 fps=426 q=-0.0 size=N/A time=00:18:02.20 bitrate=N/A speed=17.8x    frame=26159 fps=426 q=-0.0 size=N/A time=00:18:11.04 bitrate=N/A speed=17.8x    frame=26392 fps=426 q=-0.0 size=N/A time=00:18:20.76 bitrate=N/A speed=17.8x    frame=26636 fps=426 q=-0.0 size=N/A time=00:18:30.94 bitrate=N/A speed=17.8x    frame=26887 fps=427 q=-0.0 size=N/A time=00:18:41.41 bitrate=N/A speed=17.8x    frame=27126 fps=427 q=-0.0 size=N/A time=00:18:51.38 bitrate=N/A speed=17.8x    frame=27385 fps=428 q=-0.0 size=N/A time=00:19:02.18 bitrate=N/A speed=17.8x    frame=27629 fps=428 q=-0.0 size=N/A time=00:19:12.35 bitrate=N/A speed=17.9x    frame=27839 fps=428 q=-0.0 size=N/A time=00:19:21.11 bitrate=N/A speed=17.9x    frame=28031 fps=428 q=-0.0 size=N/A time=00:19:29.12 bitrate=N/A speed=17.8x    frame=28240 fps=428 q=-0.0 size=N/A time=00:19:37.84 bitrate=N/A speed=17.8x    frame=28478 fps=428 q=-0.0 size=N/A time=00:19:47.76 bitrate=N/A speed=17.8x    frame=28703 fps=428 q=-0.0 size=N/A time=00:19:57.15 bitrate=N/A speed=17.8x    frame=28970 fps=428 q=-0.0 size=N/A time=00:20:08.29 bitrate=N/A speed=17.9x    frame=29219 fps=429 q=-0.0 size=N/A time=00:20:18.67 bitrate=N/A speed=17.9x    frame=29462 fps=429 q=-0.0 size=N/A time=00:20:28.81 bitrate=N/A speed=17.9x    frame=29678 fps=429 q=-0.0 size=N/A time=00:20:37.81 bitrate=N/A speed=17.9x    frame=29956 fps=430 q=-0.0 size=N/A time=00:20:49.41 bitrate=N/A speed=17.9x    frame=30191 fps=430 q=-0.0 size=N/A time=00:20:59.21 bitrate=N/A speed=17.9x    frame=30453 fps=431 q=-0.0 size=N/A time=00:21:10.14 bitrate=N/A speed=  18x    frame=30680 fps=431 q=-0.0 size=N/A time=00:21:19.61 bitrate=N/A speed=  18x    frame=30923 fps=431 q=-0.0 size=N/A time=00:21:29.74 bitrate=N/A speed=  18x    frame=31167 fps=431 q=-0.0 size=N/A time=00:21:39.92 bitrate=N/A speed=  18x    frame=31441 fps=432 q=-0.0 size=N/A time=00:21:51.35 bitrate=N/A speed=  18x    frame=31658 fps=432 q=-0.0 size=N/A time=00:22:00.40 bitrate=N/A speed=  18x    frame=31864 fps=432 q=-0.0 size=N/A time=00:22:08.99 bitrate=N/A speed=  18x    frame=32078 fps=432 q=-0.0 size=N/A time=00:22:17.91 bitrate=N/A speed=  18x    frame=32257 fps=431 q=-0.0 size=N/A time=00:22:25.38 bitrate=N/A speed=  18x    frame=32464 fps=431 q=-0.0 size=N/A time=00:22:34.01 bitrate=N/A speed=  18x    frame=32676 fps=431 q=-0.0 size=N/A time=00:22:42.86 bitrate=N/A speed=  18x    frame=32844 fps=430 q=-0.0 size=N/A time=00:22:49.86 bitrate=N/A speed=17.9x    frame=33028 fps=429 q=-0.0 size=N/A time=00:22:57.54 bitrate=N/A speed=17.9x    frame=33278 fps=430 q=-0.0 size=N/A time=00:23:07.96 bitrate=N/A speed=17.9x    frame=33502 fps=430 q=-0.0 size=N/A time=00:23:17.31 bitrate=N/A speed=17.9x    frame=33687 fps=429 q=-0.0 size=N/A time=00:23:25.02 bitrate=N/A speed=17.9x    frame=33904 fps=429 q=-0.0 size=N/A time=00:23:34.07 bitrate=N/A speed=17.9x    frame=34121 fps=429 q=-0.0 size=N/A time=00:23:43.13 bitrate=N/A speed=17.9x    frame=34319 fps=429 q=-0.0 size=N/A time=00:23:51.38 bitrate=N/A speed=17.9x    frame=34535 fps=429 q=-0.0 size=N/A time=00:24:00.39 bitrate=N/A speed=17.9x    [Parsed_ssim_10 @ 0000016b9a1d57c0] SSIM Y:0.993011 (21.555737) U:0.990863 (20.392191) V:0.990886 (20.402764) All:0.992299 (21.134383)
[out#0/null @ 0000016b93776bc0] video:14920KiB audio:271556KiB subtitle:0KiB other streams:0KiB global headers:0KiB muxing overhead: unknown
frame=34723 fps=429 q=-0.0 Lsize=N/A time=00:24:08.23 bitrate=N/A speed=17.9x    
